<?xml version="1.0" encoding="UTF-8" standalone="no"?>
<svg
   xmlns:dc="http://purl.org/dc/elements/1.1/"
   xmlns:cc="http://creativecommons.org/ns#"
   xmlns:rdf="http://www.w3.org/1999/02/22-rdf-syntax-ns#"
   xmlns:svg="http://www.w3.org/2000/svg"
   xmlns="http://www.w3.org/2000/svg"
   id="svg119"
   version="1.1"
   viewBox="0 0 102.12916 19.050001"
   height="72"
   width="386">
  <defs
     id="defs113" />
  <metadata
     id="metadata116">
    <rdf:RDF>
      <cc:Work
         rdf:about="">
        <dc:format>image/svg+xml</dc:format>
        <dc:type
           rdf:resource="http://purl.org/dc/dcmitype/StillImage" />
        <dc:title></dc:title>
      </cc:Work>
    </rdf:RDF>
  </metadata>
  <g
     transform="translate(0,-277.94998)"
     id="layer1">
    <g
       style="image-rendering:auto"
       transform="matrix(0.82803746,0,0,0.82803746,-0.01434311,278.12443)"
       id="g90">
      <path
         id="path98"
         d="M 0,11.520001 V 0 h 8.8 8.8 v 4.1600002 4.1600002 h 6.24 6.24 V 6.2423865 4.164773 L 50.32,4.0823864 70.56,4.0000002 70.65527,2.0000001 70.750538,0 H 77.93527 85.12 v 4.1600002 4.1600002 h 1.6 1.6 V 4.1600002 0 h 6.72 6.72 v 4.1600002 4.1600002 h 2.08 2.08 V 4.1600002 0 h 8.8 8.8 v 11.520001 11.52 H 61.76 0 Z m 17.28,3.686764 V 13.13353 L 10.96,13.04677 4.64,12.96001 4.5397254,11.92001 4.4394506,10.88 H 10.859725 17.28 V 9.9267652 8.97353 L 10.96,8.8867652 4.64,8.8000004 V 6.7200003 4.6400002 l 6.32,-0.086765 6.32,-0.086765 V 2.5532353 0.64000003 H 8.96 0.64 V 8.9600004 17.280001 h 8.32 8.32 z M 34.806909,10.96 34.893821,4.8000002 H 32.806909 30.72 v 2.0800001 2.0800001 h -6.24 -6.24 v 4.1654026 4.165403 l 8.24,-0.0854 8.24,-0.0854 z M 22.293333,13.866667 C 22.026654,13.599988 22.01335,11.426032 22.274236,10.746172 22.437457,10.320826 23.127277,10.24 26.594236,10.24 H 30.72 v 1.920001 1.92 h -4.106667 c -2.258666,0 -4.202666,-0.096 -4.32,-0.213334 z M 52.48,11.04 V 4.8000002 h -8.32 -8.32 v 3.8400002 3.8400006 h 6.24 6.24 v 0.8 0.8 h -6.24 -6.24 v 1.6 1.6 h 8.32 8.32 z M 40,9.2800004 V 7.6800003 h 4.16 4.16 V 9.2800004 10.88 H 44.16 40 Z m 30.08,6.4000006 v -1.6 H 63.84 57.6 v -0.8 -0.8 h 6.24 6.24 V 8.6400004 4.8000002 h -8.32 -8.32 v 6.0266668 c 0,3.314667 0.096,6.122667 0.213334,6.24 0.117332,0.117334 3.861332,0.213334 8.32,0.213334 H 70.08 Z M 57.6,9.2800004 V 7.6800003 h 4.16 4.16 V 9.2800004 10.88 H 61.76 57.6 Z M 87.68,13.137534 V 8.9950666 L 86.16,8.8975335 84.64,8.8000004 84.550438,4.7200002 84.46088,0.64000003 H 77.750438 71.04 V 8.7466669 c 0,4.4586671 0.096,8.2026671 0.213334,8.3200001 0.117332,0.117334 3.861332,0.213334 8.32,0.213334 H 87.68 Z M 75.2,12.009289 V 10.88 h 4.340275 4.340275 l -0.100275,1.040001 -0.100275,1.04 -4.24,0.08929 -4.24,0.08929 z m 0,-5.2892887 V 4.454117 L 77.84,4.547059 80.48,4.64 v 2.0800001 2.0800001 l -2.64,0.092941 -2.64,0.092942 z m 30.08,6.4000007 V 8.9600004 H 99.04 92.8 V 6.7200003 4.4800002 h 4.16 4.16 V 2.5600001 0.64000003 H 94.88 88.64 V 5.7600002 10.88 h 6.420275 6.420275 l -0.10027,1.040001 -0.10028,1.04 -6.32,0.08676 -6.32,0.08676 v 1.859902 c 0,1.022946 0.096,1.955902 0.213334,2.073235 0.117332,0.117334 3.861332,0.213334 8.32,0.213334 H 105.28 Z m 17.8454,-4.2400006 0.0854,-8.24000037 H 114.8854 106.56 V 5.7600002 10.88 h 1.90841 1.90842 l 0.0916,-3.1199997 0.0916,-3.1200001 4.24,-0.089288 4.24,-0.089288 v 4.3292882 4.3292886 h -6.24 -6.24 v 2.085402 2.085403 l 8.24,-0.0854 8.24,-0.0854 z M 118.4,11.520001 V 10.56 h -3.68 -3.68 v 0.960001 0.96 h 3.68 3.68 z"
         style="fill:#68a4b3;stroke-width:0.31999999" />
      <path
         id="path96"
         d="M 0,11.520001 V 0 h 8.8 8.8 V 4.1600002 8.3200004 H 24 30.4 V 6.2436672 4.1673339 l 11.28,0.00285 c 6.204,0.00157 15.276,-9.05e-5 20.16,-0.00367 l 8.88,-0.00651 V 2.0800001 0 h 7.2 7.2 V 4.129116 8.2582317 L 86.720198,8.3691162 88.320397,8.4800004 88.320198,4.2400002 88.32,0 h 6.72 6.72 v 4.1600002 4.1600002 h 2.08 2.08 V 4.1600002 0 h 8.8 8.8 v 11.520001 11.52 h -8.62754 -8.62754 l -0.10666,-2.8 -0.10665,-2.8 -0.0658,2.8 -0.0658,2.8 h -8.8 -8.8 l -0.04021,-2.48 c -0.02211,-1.364 -0.130115,-4.568 -0.24,-7.12 L 87.84,8.8000004 86.32,8.7024673 84.8,8.6049341 V 4.4624671 0.32000001 H 77.92 71.04 V 8.8000004 17.280001 H 79.52 88 v 2.88 2.88 H 70.564909 53.129814 l -0.09001,-9.2 -0.09001,-9.2000008 -0.0749,9.2000008 -0.0749,9.2 H 26.4 0 Z m 17.28,3.52 v -2.24 H 11.04 4.8 v -0.96 V 10.88 h 6.24 6.24 v -1.1199996 -1.12 H 11.04 4.8 V 6.7200003 4.8000002 h 6.24 6.24 V 2.554687 0.30937383 L 8.88,0.39468693 0.48,0.48000003 0.3946869,8.8800004 0.3093738,17.280001 H 8.794687 17.28 Z M 34.88,10.88 V 4.4800002 H 32.8 30.72 v 2.0732353 2.0732353 l -6.32,0.086765 -6.32,0.086765 -0.08929,4.2400002 -0.08929,4.24 H 26.390712 34.88 Z M 22.4,12.320001 V 10.56 h 4.16 4.16 v 1.760001 1.76 H 26.56 22.4 Z M 52.48,10.88 V 4.4800002 h -8.32 -8.32 v 4.0000002 4.0000006 h 6.24 6.24 v 0.8 0.8 h -6.24 -6.24 v 1.6 1.6 h 8.32 8.32 z M 40,9.2704398 V 7.6608791 l 4.08,0.089561 4.08,0.089561 0.09753,1.5200001 L 48.355066,10.88 H 44.177533 40 Z M 70.4,15.686765 V 14.09353 l -6.32,-0.08676 c -6.28055,-0.08622 -6.320637,-0.09126 -6.422256,-0.806764 l -0.102256,-0.72 h 6.432106 6.432105 L 70.32985,8.5600004 70.24,4.6400002 61.84,4.5546872 53.44,4.469374 v 6.405314 6.405313 h 8.48 8.48 z M 57.662467,9.3600004 57.76,7.8400003 61.84,7.7504397 65.92,7.6608791 V 9.2704398 10.88 H 61.742467 57.564934 Z M 105.52929,13.040001 105.44,8.8000004 99.28,8.7130906 93.12,8.6261809 V 6.7226512 4.8191215 l 4.08,-0.089561 4.08,-0.089561 V 2.5600001 0.48000002 L 94.96,0.39323525 88.64,0.30647046 V 5.5932354 10.88 h 6.24 6.24 v 0.953091 0.95309 l -6.16,0.08691 -6.16,0.08691 -0.09462,2.16 -0.09462,2.16 h 8.503911 8.503909 z M 123.2,8.7946874 V 0.30937383 l -8.4,0.0853131 -8.4,0.0853131 L 106.3121,5.6800002 106.2242,10.88 h 2.24792 c 2.18446,0 2.24793,0.02259 2.24793,0.800001 v 0.8 h 3.84 3.84 v -1.042744 -1.042743 l -3.83888,0.0028 -3.83888,0.0027 -0.001,-2.7999997 -10e-4,-2.8000001 h 4.16 4.16 v 3.9932354 3.9932354 l -6.32,0.08676 -6.32,0.08676 -0.0946,2.16 -0.0946,2.16 H 114.70538 123.2 Z M 106.13193,11.44 c -0.0888,-0.22 -0.16141,-0.04 -0.16141,0.400001 0,0.44 0.0726,0.62 0.16141,0.4 0.0888,-0.22 0.0888,-0.58 0,-0.800001 z M 75.2,11.840001 V 10.88 h 4.16 4.16 v 0.960001 0.96 H 79.36 75.2 Z m 0,-5.1200007 V 4.8000002 h 2.56 2.56 V 6.7200003 8.6400004 H 77.76 75.2 Z"
         style="fill:#328398;stroke-width:0.31999999" />
      <path
         id="path94"
         d="m 0.21068082,18.960001 c -0.11444704,-2.244 -0.20866946,-7.428 -0.20938317,-11.5200007 L 0,0 H 8.7621504 17.524301 L 17.76,8.6400004 17.995699,17.280001 H 26.59785 35.2 v 2.88 2.88 h -8.627541 -8.627542 l -0.106655,-2.8 -0.106656,-2.8 -0.0658,2.8 -0.0658,2.8 H 9.009383 0.41876634 Z M 17.28,15.040001 v -2.24 H 11.04 4.8 v -0.8 V 11.2 h 6.24 6.24 v -1.2799996 -1.28 H 11.04 4.8 V 6.7200003 4.8000002 h 6.24 6.24 V 2.5600001 0.32000001 H 8.8 0.32 V 8.8000004 17.280001 h 8.48 8.48 z m 18.24,5.12 v -2.88 h 8.473373 8.473376 L 52.560381,10.8 c 0.07975,-5.5188647 0.104461,-5.0916938 0.166627,2.880001 l 0.07299,9.36 h -8.64 -8.64 z m 17.599789,-0.08 -2.11e-4,-2.96 8.657283,0.0901 8.657286,0.0901 -0.09707,-1.690103 -0.09707,-1.690103 -6.16,-0.08691 c -5.89497,-0.08317 -6.16,-0.114148 -6.16,-0.72 0,-0.60911 0.236,-0.63309 6.230438,-0.63309 h 6.230442 l 0.115744,-3.9200006 0.115747,-3.9200002 0.01146,4.6400002 c 0.0063,2.5520006 0.03053,5.3960006 0.05382,6.3200006 l 0.04236,1.68 H 79.36 88 v 2.88 2.88 h -8.62799 -8.627994 l -0.105594,-2.96 -0.105596,-2.96 -0.06641,2.96 -0.06641,2.96 H 61.76 53.12 Z M 88.32,11.520001 V 0 l 6.64,0.0729925 6.64,0.0729925 -6.48,0.0936333 -6.48,0.0936333 V 5.6066258 10.88 h 6.24 6.24 v 0.960001 0.96 h -6.24 -6.24 v 2.24 2.24 h 8.47097 8.47097 l 0.0988,-4.4 c 0.0693,-3.0836572 0.11984,-2.222051 0.16903,2.88 l 0.0702,7.28 h -8.8 -8.8 z m 17.92,8.64 v -2.88 h 8.48 8.48 V 8.8052269 0.33045339 L 114.64,0.23977403 106.08,0.14909468 114.8,0.07454734 123.52,0 v 11.520001 11.52 h -8.64 -8.64 z m -70.72033,-6.96 3.3e-4,-0.72 h 6.202678 c 5.891898,0 6.210896,0.03143 6.366736,0.627359 0.158314,0.605398 -0.05883,0.630603 -6.203008,0.72 L 35.519341,13.92 35.519661,13.2 Z M 22.4,12.160001 V 10.56 h 4.16 4.16 v 1.600001 1.6 H 26.56 22.4 Z m 52.8,-0.16 V 11.2 h 4.16 4.16 v 0.800001 0.8 H 79.36 75.2 Z m 31.04,-0.08 c 0,-0.876191 0.01,-0.880001 2.24,-0.880001 2.1007,0 2.24,0.04418 2.24,0.71044 0,0.691542 0.10852,0.713099 4.08,0.810454 3.14999,0.07722 2.6394,0.115867 -2.24,0.16956 l -6.32,0.06955 z M 40,9.4400004 V 8.0000003 h 4.08 4.08 V 9.4400004 10.88 H 44.08 40 Z m 17.92,0 V 8.0000003 h 4 4 V 9.4400004 10.88 h -4 -4 z m 56.72,0.8809596 -3.92,-0.100658 V 7.510151 4.8000002 h 4 4 v 2.8800001 c 0,1.5840001 -0.036,2.8488637 -0.08,2.8108087 -0.044,-0.03805 -1.844,-0.114487 -4,-0.169849 z M 30.331235,7.1200003 c 0.165808,-2.6294923 0.300028,-2.8783448 0.345187,-0.64 0.02397,1.188 -0.06546,2.1600001 -0.198728,2.1600001 -0.133268,0 -0.199175,-0.6840001 -0.146459,-1.5200001 z M 75.2,6.7200003 V 4.8000002 h 2.56 2.56 V 6.7200003 8.6400004 H 77.76 75.2 Z M 84.8,4.4681007 V 0.29620095 l -7.040288,0.0918995 c -3.87216,0.0505447 -7.04016,-0.0161005 -7.04,-0.14810049 C 70.719869,0.108 73.96,0 77.92,0 h 7.2 v 4.3200002 c 0,2.3760001 -0.072,4.3200002 -0.16,4.3200002 -0.088,0 -0.16,-1.877355 -0.16,-4.1718997 z m 8.32,2.2518996 V 4.8000002 h 4.131578 4.131582 l 0.10842,1.9205831 0.10842,1.9205832 -4.24,-5.76e-4 -4.24,-5.901e-4 z"
         style="fill:#0c6c85;stroke-width:0.31999999" />
      <path
         id="path92"
         d="m 0.21068082,18.960001 c -0.11444704,-2.244 -0.20866946,-7.428 -0.20938317,-11.5200007 L 0,0 8.72,0.07454734 17.44,0.14909468 8.88,0.23977403 0.32,0.33045339 V 8.8052269 17.280001 h 8.48 8.48 v -2.24 -2.24 H 11.04 4.8 v -0.8 V 11.2 h 6.24 6.24 v -1.2799996 -1.28 H 11.04 4.8 V 6.7200003 4.8000002 h 6.24 6.24 l 0.06893,2.0000001 c 0.152626,4.4282087 0.152465,6.6948747 -8e-4,11.3600007 l -0.160338,4.88 H 8.8032806 0.41876634 Z m 17.70931918,1.2 v -2.88 h 8.48 8.48 v 2.88 2.88 H 26.4 17.92 Z m 17.6,0 v -2.88 h 8.64 8.64 v 2.88 2.88 h -8.64 -8.64 z m 17.6,0 v -2.88 h 8.64 8.64 v 2.88 2.88 h -8.64 -8.64 z m 17.92,0 v -2.88 H 79.52 88 v 2.88 2.88 h -8.48 -8.48 z m 17.351498,-8.4 C 88.430822,5.5560002 88.50639,2.8200001 88.559427,5.6800002 L 88.655853,10.88 H 94.887926 101.12 v 0.960001 0.96 h -6.24 -6.24 v 2.24 2.24 h 8.48 8.48 l 0.0559,-4.4 c 0.0307,-2.420001 0.11582,-3.7520006 0.18905,-2.9600006 0.0732,0.7919996 0.0325,4.0680006 -0.0906,7.2800006 l -0.22375,5.84 H 96.925306 88.32 Z m 17.848502,8.4 v -2.88 h 8.64 8.64 v 2.88 2.88 h -8.64 -8.64 z m -83.84,-8 V 10.56 h 4 4 v 1.600001 1.6 h -4 -4 z m 13.12,1.12 c 0,-0.410257 0.906666,-0.48 6.24,-0.48 5.333334,0 6.24,0.06974 6.24,0.48 0,0.410256 -0.906666,0.48 -6.24,0.48 -5.333334,0 -6.24,-0.06974 -6.24,-0.48 z m 22.4,0 c 0,-0.410257 0.906666,-0.48 6.24,-0.48 5.333334,0 6.24,0.06974 6.24,0.48 0,0.410256 -0.906666,0.48 -6.24,0.48 -5.333334,0 -6.24,-0.06974 -6.24,-0.48 z m 17.6,-1.28 V 11.2 h 3.802694 c 3.802096,0 3.80272,1.27e-4 3.955626,0.800001 l 0.152931,0.8 H 79.475626 75.52 Z m 30.72,0 c 0,-0.775853 0.0665,-0.800001 2.20269,-0.800001 2.09543,0 2.21015,0.03896 2.35563,0.800001 0.15192,0.794732 0.13742,0.8 -2.20269,0.8 -2.29934,0 -2.35563,-0.01912 -2.35563,-0.8 z M 40,9.4400004 V 8.0000003 h 4 4 V 9.4400004 10.88 h -4 -4 z m 17.92,0 V 8.0000003 h 4 4 V 9.4400004 10.88 h -4 -4 z m 52.8,-1.9200001 V 4.8000002 h 4 4 V 7.5200003 10.24 h -4 -4 z M 75.468422,6.7205833 75.576845,4.8000002 H 77.948422 80.32 v 1.9200001 1.9200001 l -2.48,5.76e-4 -2.48,5.76e-4 0.108422,-1.9205831 z M 84.86919,4.5662408 84.8,0.33248152 77.84,0.23966607 70.88,0.14685064 77.850042,0.07342532 c 5.491651,-0.05785133 7.004048,0.01518221 7.130352,0.34432475 0.08817,0.22976253 0.114784,2.20976263 0.05915,4.40000023 L 84.938381,8.8000004 Z M 93.12,6.7200003 V 4.8000002 h 4.131578 4.131582 l 0.10842,1.9205831 0.10842,1.9205832 -4.24,-5.76e-4 -4.24,-5.901e-4 z M 91.76,0.08131823 c 1.804,-0.05703908 4.756,-0.05703908 6.56,0 1.804,0.05703908 0.328,0.10370741 -3.28,0.10370741 -3.608,0 -5.084,-0.0466683 -3.28,-0.10370741 z m 18.72,-5.392e-4 c 2.42,-0.05436179 6.38,-0.05436179 8.8,0 2.42,0.05436179 0.44,0.09883962 -4.4,0.09883962 -4.84,0 -6.82,-0.0444778 -4.4,-0.09883962 z"
         style="fill:#00657f;stroke-width:0.31999999" />
    </g>
  </g>
</svg>
